<mxfile host="app.diagrams.net" modified="2022-01-07T10:36:45.318Z" agent="5.0 (Windows)" etag="d7_3F4-rnxkwj4LNJtYd" version="15.7.3" type="github">
  <diagram id="1pBwWzd9Vc_49rnzmcir" name="Page-1">
    <mxGraphModel dx="1038" dy="564" grid="1" gridSize="10" guides="1" tooltips="1" connect="1" arrows="1" fold="1" page="1" pageScale="1" pageWidth="850" pageHeight="1100" math="0" shadow="0">
      <root>
        <mxCell id="0" />
        <mxCell id="1" parent="0" />
        <mxCell id="YK_nNf8pC3k8RjE2SdHL-1" value="&lt;div align=&quot;center&quot;&gt;&lt;b&gt;&lt;font style=&quot;font-size: 14px&quot;&gt;השרת המרכזי&lt;/font&gt;&lt;/b&gt;&lt;/div&gt;&lt;div align=&quot;center&quot;&gt;&lt;b&gt;&lt;font style=&quot;font-size: 14px&quot;&gt; של אל-על&lt;/font&gt;&lt;/b&gt;&lt;/div&gt;" style="verticalAlign=top;align=center;shape=cube;size=10;direction=south;fontStyle=0;html=1;boundedLbl=1;spacingLeft=5;" vertex="1" parent="1">
          <mxGeometry x="380" y="200" width="150" height="270" as="geometry" />
        </mxCell>
        <mxCell id="YK_nNf8pC3k8RjE2SdHL-9" value="&lt;div align=&quot;center&quot;&gt;&amp;lt;&amp;lt;Device&amp;gt;&amp;gt;&lt;/div&gt;&lt;div align=&quot;center&quot;&gt;&lt;br&gt;&lt;/div&gt;&lt;div align=&quot;center&quot;&gt;סורק ייעודי&lt;br&gt;&lt;/div&gt;" style="verticalAlign=top;align=center;shape=cube;size=10;direction=south;fontStyle=0;html=1;boundedLbl=1;spacingLeft=5;fontSize=14;" vertex="1" parent="1">
          <mxGeometry x="570" y="80" width="120" height="80" as="geometry" />
        </mxCell>
        <mxCell id="YK_nNf8pC3k8RjE2SdHL-13" value="" style="endArrow=none;html=1;rounded=0;fontSize=14;entryX=1;entryY=0.442;entryDx=0;entryDy=0;entryPerimeter=0;" edge="1" parent="1" target="YK_nNf8pC3k8RjE2SdHL-9">
          <mxGeometry width="50" height="50" relative="1" as="geometry">
            <mxPoint x="520" y="280" as="sourcePoint" />
            <mxPoint x="630" y="190" as="targetPoint" />
            <Array as="points">
              <mxPoint x="637" y="280" />
            </Array>
          </mxGeometry>
        </mxCell>
        <mxCell id="YK_nNf8pC3k8RjE2SdHL-14" value="1..*" style="edgeLabel;html=1;align=center;verticalAlign=middle;resizable=0;points=[];fontSize=14;" vertex="1" connectable="0" parent="YK_nNf8pC3k8RjE2SdHL-13">
          <mxGeometry x="0.7999" relative="1" as="geometry">
            <mxPoint x="-16" as="offset" />
          </mxGeometry>
        </mxCell>
        <mxCell id="YK_nNf8pC3k8RjE2SdHL-15" value="1..*" style="edgeLabel;html=1;align=center;verticalAlign=middle;resizable=0;points=[];fontSize=14;" vertex="1" connectable="0" parent="YK_nNf8pC3k8RjE2SdHL-13">
          <mxGeometry x="-0.8345" y="-1" relative="1" as="geometry">
            <mxPoint y="19" as="offset" />
          </mxGeometry>
        </mxCell>
        <mxCell id="YK_nNf8pC3k8RjE2SdHL-20" value="" style="edgeStyle=orthogonalEdgeStyle;rounded=0;orthogonalLoop=1;jettySize=auto;html=1;fontSize=14;" edge="1" parent="1" source="YK_nNf8pC3k8RjE2SdHL-16" target="YK_nNf8pC3k8RjE2SdHL-19">
          <mxGeometry relative="1" as="geometry" />
        </mxCell>
        <mxCell id="YK_nNf8pC3k8RjE2SdHL-16" value="&amp;lt;&amp;lt;artifact&amp;gt;&amp;gt;&lt;br&gt;&lt;b&gt;תכנת השרת&lt;/b&gt;" style="text;html=1;align=center;verticalAlign=middle;dashed=0;fillColor=#ffffff;strokeColor=#000000;fontSize=14;" vertex="1" parent="1">
          <mxGeometry x="405" y="270" width="90" height="50" as="geometry" />
        </mxCell>
        <mxCell id="YK_nNf8pC3k8RjE2SdHL-19" value="&lt;div&gt;&amp;lt;&amp;lt;artifact&amp;gt;&amp;gt;&lt;/div&gt;&lt;div&gt;&lt;b&gt;מסד הנתונים&lt;/b&gt;&lt;br&gt;&lt;/div&gt;" style="text;html=1;align=center;verticalAlign=middle;dashed=0;fillColor=#ffffff;strokeColor=#000000;fontSize=14;" vertex="1" parent="1">
          <mxGeometry x="405" y="340" width="90" height="50" as="geometry" />
        </mxCell>
        <mxCell id="YK_nNf8pC3k8RjE2SdHL-23" value="&lt;div align=&quot;center&quot;&gt;&amp;lt;&amp;lt;Device&amp;gt;&amp;gt;&lt;/div&gt;&lt;div align=&quot;center&quot;&gt;&lt;br&gt;&lt;/div&gt;&lt;div align=&quot;center&quot;&gt;מחשב &lt;br&gt;משרד &lt;br&gt;הבריאות &lt;br&gt;&lt;/div&gt;" style="verticalAlign=top;align=center;shape=cube;size=10;direction=south;fontStyle=0;html=1;boundedLbl=1;spacingLeft=5;fontSize=14;" vertex="1" parent="1">
          <mxGeometry x="620" y="480" width="130" height="110" as="geometry" />
        </mxCell>
        <mxCell id="YK_nNf8pC3k8RjE2SdHL-25" value="&lt;div align=&quot;center&quot;&gt;&amp;lt;&amp;lt;Device&amp;gt;&amp;gt;&lt;/div&gt;&lt;div align=&quot;center&quot;&gt;&lt;br&gt;&lt;/div&gt;&lt;div align=&quot;center&quot;&gt;טאבלט&lt;br&gt;משרד &lt;br&gt;הבריאות&lt;br&gt;&lt;/div&gt;" style="verticalAlign=top;align=center;shape=cube;size=10;direction=south;fontStyle=0;html=1;boundedLbl=1;spacingLeft=5;fontSize=14;" vertex="1" parent="1">
          <mxGeometry x="160" y="470" width="130" height="110" as="geometry" />
        </mxCell>
        <mxCell id="YK_nNf8pC3k8RjE2SdHL-27" value="&amp;lt;&amp;lt;interface&amp;gt;&amp;gt;&lt;br&gt;אפליקציית &lt;br&gt;&lt;div&gt;משרד&lt;/div&gt;&lt;div&gt;הבריאות&lt;br&gt;&lt;/div&gt;" style="text;html=1;align=center;verticalAlign=middle;dashed=0;fillColor=#ffffff;strokeColor=#000000;fontSize=14;" vertex="1" parent="1">
          <mxGeometry x="360" y="500" width="180" height="70" as="geometry" />
        </mxCell>
        <mxCell id="YK_nNf8pC3k8RjE2SdHL-28" value="" style="endArrow=none;html=1;rounded=0;fontSize=14;exitX=0.009;exitY=0.215;exitDx=0;exitDy=0;exitPerimeter=0;" edge="1" parent="1" source="YK_nNf8pC3k8RjE2SdHL-25" target="YK_nNf8pC3k8RjE2SdHL-1">
          <mxGeometry width="50" height="50" relative="1" as="geometry">
            <mxPoint x="380" y="470" as="sourcePoint" />
            <mxPoint x="430" y="420" as="targetPoint" />
          </mxGeometry>
        </mxCell>
        <mxCell id="YK_nNf8pC3k8RjE2SdHL-29" value="1..*" style="edgeLabel;html=1;align=center;verticalAlign=middle;resizable=0;points=[];fontSize=14;" vertex="1" connectable="0" parent="YK_nNf8pC3k8RjE2SdHL-28">
          <mxGeometry x="0.6348" y="-3" relative="1" as="geometry">
            <mxPoint x="-31" y="-8" as="offset" />
          </mxGeometry>
        </mxCell>
        <mxCell id="YK_nNf8pC3k8RjE2SdHL-30" value="1..*" style="edgeLabel;html=1;align=center;verticalAlign=middle;resizable=0;points=[];fontSize=14;" vertex="1" connectable="0" parent="YK_nNf8pC3k8RjE2SdHL-28">
          <mxGeometry x="-0.6" relative="1" as="geometry">
            <mxPoint x="15" y="10" as="offset" />
          </mxGeometry>
        </mxCell>
        <mxCell id="YK_nNf8pC3k8RjE2SdHL-31" value="" style="endArrow=none;html=1;rounded=0;fontSize=14;" edge="1" parent="1" source="YK_nNf8pC3k8RjE2SdHL-23" target="YK_nNf8pC3k8RjE2SdHL-27">
          <mxGeometry width="50" height="50" relative="1" as="geometry">
            <mxPoint x="160" y="310" as="sourcePoint" />
            <mxPoint x="210" y="260" as="targetPoint" />
          </mxGeometry>
        </mxCell>
        <mxCell id="YK_nNf8pC3k8RjE2SdHL-32" value="1..*" style="edgeLabel;html=1;align=center;verticalAlign=middle;resizable=0;points=[];fontSize=14;" vertex="1" connectable="0" parent="YK_nNf8pC3k8RjE2SdHL-31">
          <mxGeometry x="0.4736" y="-2" relative="1" as="geometry">
            <mxPoint x="6" y="-18" as="offset" />
          </mxGeometry>
        </mxCell>
        <mxCell id="YK_nNf8pC3k8RjE2SdHL-33" value="1..*" style="edgeLabel;html=1;align=center;verticalAlign=middle;resizable=0;points=[];fontSize=14;" vertex="1" connectable="0" parent="YK_nNf8pC3k8RjE2SdHL-31">
          <mxGeometry x="-0.5279" y="-2" relative="1" as="geometry">
            <mxPoint y="12" as="offset" />
          </mxGeometry>
        </mxCell>
        <mxCell id="YK_nNf8pC3k8RjE2SdHL-34" value="" style="endArrow=none;html=1;rounded=0;fontSize=14;exitX=0;exitY=0;exitDx=50;exitDy=0;exitPerimeter=0;" edge="1" parent="1" source="YK_nNf8pC3k8RjE2SdHL-25">
          <mxGeometry width="50" height="50" relative="1" as="geometry">
            <mxPoint x="290" y="351.17021276595744" as="sourcePoint" />
            <mxPoint x="360" y="520" as="targetPoint" />
            <Array as="points" />
          </mxGeometry>
        </mxCell>
        <mxCell id="YK_nNf8pC3k8RjE2SdHL-35" value="1..*" style="edgeLabel;html=1;align=center;verticalAlign=middle;resizable=0;points=[];fontSize=14;" vertex="1" connectable="0" parent="YK_nNf8pC3k8RjE2SdHL-34">
          <mxGeometry x="0.4736" y="-2" relative="1" as="geometry">
            <mxPoint x="-2" y="-18" as="offset" />
          </mxGeometry>
        </mxCell>
        <mxCell id="YK_nNf8pC3k8RjE2SdHL-36" value="1..*" style="edgeLabel;html=1;align=center;verticalAlign=middle;resizable=0;points=[];fontSize=14;" vertex="1" connectable="0" parent="YK_nNf8pC3k8RjE2SdHL-34">
          <mxGeometry x="-0.5279" y="-2" relative="1" as="geometry">
            <mxPoint y="12" as="offset" />
          </mxGeometry>
        </mxCell>
        <mxCell id="YK_nNf8pC3k8RjE2SdHL-38" value="" style="endArrow=none;html=1;rounded=0;fontSize=14;exitX=0;exitY=0;exitDx=5;exitDy=125;exitPerimeter=0;" edge="1" parent="1" source="YK_nNf8pC3k8RjE2SdHL-23" target="YK_nNf8pC3k8RjE2SdHL-1">
          <mxGeometry width="50" height="50" relative="1" as="geometry">
            <mxPoint x="460" y="490" as="sourcePoint" />
            <mxPoint x="460" y="420" as="targetPoint" />
          </mxGeometry>
        </mxCell>
        <mxCell id="YK_nNf8pC3k8RjE2SdHL-39" value="1..*" style="edgeLabel;html=1;align=center;verticalAlign=middle;resizable=0;points=[];fontSize=14;" vertex="1" connectable="0" parent="YK_nNf8pC3k8RjE2SdHL-38">
          <mxGeometry x="0.6348" y="-3" relative="1" as="geometry">
            <mxPoint x="29" y="14" as="offset" />
          </mxGeometry>
        </mxCell>
        <mxCell id="YK_nNf8pC3k8RjE2SdHL-40" value="1..*" style="edgeLabel;html=1;align=center;verticalAlign=middle;resizable=0;points=[];fontSize=14;" vertex="1" connectable="0" parent="YK_nNf8pC3k8RjE2SdHL-38">
          <mxGeometry x="-0.6" relative="1" as="geometry">
            <mxPoint x="-20" as="offset" />
          </mxGeometry>
        </mxCell>
        <mxCell id="YK_nNf8pC3k8RjE2SdHL-41" value="&lt;div align=&quot;center&quot;&gt;&amp;lt;&amp;lt;Device&amp;gt;&amp;gt;&lt;/div&gt;&lt;div align=&quot;center&quot;&gt;&lt;br&gt;&lt;/div&gt;&lt;div align=&quot;center&quot;&gt;טאבלט&lt;br&gt;אישי&lt;br&gt;אל על&lt;br&gt;&lt;/div&gt;" style="verticalAlign=top;align=center;shape=cube;size=10;direction=south;fontStyle=0;html=1;boundedLbl=1;spacingLeft=5;fontSize=14;" vertex="1" parent="1">
          <mxGeometry x="120" y="225" width="130" height="160" as="geometry" />
        </mxCell>
        <mxCell id="YK_nNf8pC3k8RjE2SdHL-42" value="&lt;div&gt;&amp;lt;&amp;lt;artifact&amp;gt;&amp;gt;&lt;/div&gt;&lt;div&gt;תכנת הטבלט&lt;br&gt;&lt;/div&gt;" style="text;html=1;align=center;verticalAlign=middle;dashed=0;fillColor=#ffffff;strokeColor=#000000;fontSize=14;" vertex="1" parent="1">
          <mxGeometry x="140" y="330" width="90" height="50" as="geometry" />
        </mxCell>
        <mxCell id="YK_nNf8pC3k8RjE2SdHL-43" value="" style="endArrow=none;html=1;rounded=0;fontSize=14;exitX=0.6;exitY=0.015;exitDx=0;exitDy=0;exitPerimeter=0;entryX=0.571;entryY=1.007;entryDx=0;entryDy=0;entryPerimeter=0;" edge="1" parent="1" source="YK_nNf8pC3k8RjE2SdHL-41" target="YK_nNf8pC3k8RjE2SdHL-1">
          <mxGeometry width="50" height="50" relative="1" as="geometry">
            <mxPoint x="262.04999999999995" y="424.17" as="sourcePoint" />
            <mxPoint x="380" y="320.0012290502793" as="targetPoint" />
          </mxGeometry>
        </mxCell>
        <mxCell id="YK_nNf8pC3k8RjE2SdHL-44" value="1..*" style="edgeLabel;html=1;align=center;verticalAlign=middle;resizable=0;points=[];fontSize=14;" vertex="1" connectable="0" parent="YK_nNf8pC3k8RjE2SdHL-43">
          <mxGeometry x="0.6348" y="-3" relative="1" as="geometry">
            <mxPoint x="-5" y="-13" as="offset" />
          </mxGeometry>
        </mxCell>
        <mxCell id="YK_nNf8pC3k8RjE2SdHL-45" value="1..*" style="edgeLabel;html=1;align=center;verticalAlign=middle;resizable=0;points=[];fontSize=14;" vertex="1" connectable="0" parent="YK_nNf8pC3k8RjE2SdHL-43">
          <mxGeometry x="-0.6" relative="1" as="geometry">
            <mxPoint x="15" y="10" as="offset" />
          </mxGeometry>
        </mxCell>
        <mxCell id="YK_nNf8pC3k8RjE2SdHL-46" value="&lt;div align=&quot;center&quot;&gt;&amp;lt;&amp;lt;Device&amp;gt;&amp;gt;&lt;/div&gt;&lt;div align=&quot;center&quot;&gt;&lt;br&gt;&lt;/div&gt;&lt;div align=&quot;center&quot;&gt;טלפון&lt;br&gt;אישי&lt;br&gt;אל על&lt;br&gt;&lt;/div&gt;" style="verticalAlign=top;align=center;shape=cube;size=10;direction=south;fontStyle=0;html=1;boundedLbl=1;spacingLeft=5;fontSize=14;" vertex="1" parent="1">
          <mxGeometry x="110" y="40" width="130" height="150" as="geometry" />
        </mxCell>
        <mxCell id="YK_nNf8pC3k8RjE2SdHL-47" value="" style="endArrow=none;html=1;rounded=0;fontSize=14;entryX=0.214;entryY=0.986;entryDx=0;entryDy=0;entryPerimeter=0;" edge="1" parent="1" source="YK_nNf8pC3k8RjE2SdHL-46" target="YK_nNf8pC3k8RjE2SdHL-1">
          <mxGeometry width="50" height="50" relative="1" as="geometry">
            <mxPoint x="259.99999999999994" y="181.09" as="sourcePoint" />
            <mxPoint x="390.96999999999997" y="180.00000000000009" as="targetPoint" />
          </mxGeometry>
        </mxCell>
        <mxCell id="YK_nNf8pC3k8RjE2SdHL-48" value="1..*" style="edgeLabel;html=1;align=center;verticalAlign=middle;resizable=0;points=[];fontSize=14;" vertex="1" connectable="0" parent="YK_nNf8pC3k8RjE2SdHL-47">
          <mxGeometry x="0.6348" y="-3" relative="1" as="geometry">
            <mxPoint x="6" y="-21" as="offset" />
          </mxGeometry>
        </mxCell>
        <mxCell id="YK_nNf8pC3k8RjE2SdHL-49" value="1..*" style="edgeLabel;html=1;align=center;verticalAlign=middle;resizable=0;points=[];fontSize=14;" vertex="1" connectable="0" parent="YK_nNf8pC3k8RjE2SdHL-47">
          <mxGeometry x="-0.6" relative="1" as="geometry">
            <mxPoint x="1" y="16" as="offset" />
          </mxGeometry>
        </mxCell>
        <mxCell id="YK_nNf8pC3k8RjE2SdHL-50" value="&lt;div align=&quot;center&quot;&gt;&lt;b&gt;&lt;font style=&quot;font-size: 14px&quot;&gt;שרת האתר החיצוני&lt;br&gt;&lt;/font&gt;&lt;/b&gt;&lt;/div&gt;" style="verticalAlign=top;align=center;shape=cube;size=10;direction=south;fontStyle=0;html=1;boundedLbl=1;spacingLeft=5;" vertex="1" parent="1">
          <mxGeometry x="860" y="110" width="140" height="210" as="geometry" />
        </mxCell>
        <mxCell id="YK_nNf8pC3k8RjE2SdHL-53" value="" style="edgeStyle=orthogonalEdgeStyle;rounded=0;orthogonalLoop=1;jettySize=auto;html=1;fontSize=14;" edge="1" parent="1" source="YK_nNf8pC3k8RjE2SdHL-51" target="YK_nNf8pC3k8RjE2SdHL-52">
          <mxGeometry relative="1" as="geometry" />
        </mxCell>
        <mxCell id="YK_nNf8pC3k8RjE2SdHL-51" value="&amp;lt;&amp;lt;artifact&amp;gt;&amp;gt;&lt;br&gt;תכנת האתר" style="text;html=1;align=center;verticalAlign=middle;dashed=0;fillColor=#ffffff;strokeColor=#000000;fontSize=14;" vertex="1" parent="1">
          <mxGeometry x="885" y="180" width="90" height="50" as="geometry" />
        </mxCell>
        <mxCell id="YK_nNf8pC3k8RjE2SdHL-52" value="&lt;div&gt;&amp;lt;&amp;lt;artifact&amp;gt;&amp;gt;&lt;/div&gt;&lt;div&gt;מסד נתונים&lt;br&gt;&lt;/div&gt;" style="text;html=1;align=center;verticalAlign=middle;dashed=0;fillColor=#ffffff;strokeColor=#000000;fontSize=14;" vertex="1" parent="1">
          <mxGeometry x="885" y="250" width="90" height="50" as="geometry" />
        </mxCell>
        <mxCell id="YK_nNf8pC3k8RjE2SdHL-61" value="&lt;div align=&quot;center&quot;&gt;&amp;lt;&amp;lt;Device&amp;gt;&amp;gt;&lt;/div&gt;&lt;div align=&quot;center&quot;&gt;&lt;br&gt;&lt;/div&gt;&lt;div align=&quot;center&quot;&gt;מכשיר SOS&lt;br&gt;&lt;/div&gt;" style="verticalAlign=top;align=center;shape=cube;size=10;direction=south;fontStyle=0;html=1;boundedLbl=1;spacingLeft=5;fontSize=14;" vertex="1" parent="1">
          <mxGeometry x="395" y="50" width="120" height="80" as="geometry" />
        </mxCell>
        <mxCell id="YK_nNf8pC3k8RjE2SdHL-62" value="" style="endArrow=none;html=1;rounded=0;fontSize=14;entryX=0.019;entryY=0.533;entryDx=0;entryDy=0;entryPerimeter=0;exitX=0;exitY=0;exitDx=80;exitDy=65;exitPerimeter=0;" edge="1" parent="1" source="YK_nNf8pC3k8RjE2SdHL-61" target="YK_nNf8pC3k8RjE2SdHL-1">
          <mxGeometry width="50" height="50" relative="1" as="geometry">
            <mxPoint x="310" y="110.84271366489617" as="sourcePoint" />
            <mxPoint x="452.0999999999999" y="200.00000000000006" as="targetPoint" />
          </mxGeometry>
        </mxCell>
        <mxCell id="YK_nNf8pC3k8RjE2SdHL-63" value="1" style="edgeLabel;html=1;align=center;verticalAlign=middle;resizable=0;points=[];fontSize=14;" vertex="1" connectable="0" parent="YK_nNf8pC3k8RjE2SdHL-62">
          <mxGeometry x="0.6348" y="-3" relative="1" as="geometry">
            <mxPoint x="13" y="-10" as="offset" />
          </mxGeometry>
        </mxCell>
        <mxCell id="YK_nNf8pC3k8RjE2SdHL-64" value="1" style="edgeLabel;html=1;align=center;verticalAlign=middle;resizable=0;points=[];fontSize=14;" vertex="1" connectable="0" parent="YK_nNf8pC3k8RjE2SdHL-62">
          <mxGeometry x="-0.6" relative="1" as="geometry">
            <mxPoint x="-10" y="5" as="offset" />
          </mxGeometry>
        </mxCell>
        <mxCell id="YK_nNf8pC3k8RjE2SdHL-65" value="&amp;lt;&amp;lt;artifact&amp;gt;&amp;gt;&lt;br&gt;&lt;br&gt;&lt;b&gt;שליחת מייל&lt;/b&gt;" style="text;html=1;align=center;verticalAlign=middle;dashed=0;fillColor=#ffffff;strokeColor=#000000;fontSize=14;" vertex="1" parent="1">
          <mxGeometry x="405" y="400" width="90" height="60" as="geometry" />
        </mxCell>
      </root>
    </mxGraphModel>
  </diagram>
</mxfile>
